HIERARCHY
ROOT Hips
{
 OFFSET 0.000000 0.000000 0.000000
 CHANNELS 6 Xposition Yposition Zposition Yrotation Xrotation Zrotation
 JOINT Chest
 {
  OFFSET 0.000000 9.585900 0.002600
  CHANNELS 3 Yrotation Xrotation Zrotation
  JOINT Chest2
  {
   OFFSET 0.000000 9.601200 -0.005300
   CHANNELS 3 Yrotation Xrotation Zrotation
   JOINT Chest3
   {
    OFFSET 0.000000 9.561800 0.000000
    CHANNELS 3 Yrotation Xrotation Zrotation
    JOINT Chest4
    {
     OFFSET 0.000000 9.552100 0.000000
     CHANNELS 3 Yrotation Xrotation Zrotation
     JOINT Neck
     {
      OFFSET 0.000000 14.453000 0.000000
      CHANNELS 3 Yrotation Xrotation Zrotation
      JOINT Head
      {
       OFFSET 0.000000 8.936500 -0.011300
       CHANNELS 3 Yrotation Xrotation Zrotation
       End Site
       {
        OFFSET 0.000000 17.073600 -0.006000
       }
      }
     }
     JOINT RightCollar
     {
      OFFSET -2.921100 9.558500 0.000000
      CHANNELS 3 Yrotation Xrotation Zrotation
      JOINT RightShoulder
      {
       OFFSET -13.519700 0.000000 0.000000
       CHANNELS 3 Yrotation Xrotation Zrotation
       JOINT RightElbow
       {
        OFFSET 0.000000 -29.696600 0.000000
        CHANNELS 3 Yrotation Xrotation Zrotation
        JOINT RightWrist
        {
         OFFSET 0.000000 -24.004700 0.000000
         CHANNELS 3 Yrotation Xrotation Zrotation
         End Site
         {
          OFFSET 0.000000 -17.728500 0.000000
         }
        }
       }
      }
     }
     JOINT LeftCollar
     {
      OFFSET 2.921100 9.558500 0.000000
      CHANNELS 3 Yrotation Xrotation Zrotation
      JOINT LeftShoulder
      {
       OFFSET 13.519700 0.000000 0.000000
       CHANNELS 3 Yrotation Xrotation Zrotation
       JOINT LeftElbow
       {
        OFFSET 0.000000 -29.696600 0.000000
        CHANNELS 3 Yrotation Xrotation Zrotation
        JOINT LeftWrist
        {
         OFFSET 0.000000 -24.004700 0.000000
         CHANNELS 3 Yrotation Xrotation Zrotation
         End Site
         {
          OFFSET 0.000000 -17.728500 0.000000
         }
        }
       }
      }
     }
    }
   }
  }
 }
 JOINT RightHip
 {
  OFFSET -7.771700 -0.012900 -0.001300
  CHANNELS 3 Yrotation Xrotation Zrotation
  JOINT RightKnee
  {
   OFFSET 0.000000 -40.869800 0.001200
   CHANNELS 3 Yrotation Xrotation Zrotation
   JOINT RightAnkle
   {
    OFFSET 0.000000 -39.717900 0.002100
    CHANNELS 3 Yrotation Xrotation Zrotation
    JOINT RightToe
    {
     OFFSET 0.000000 -4.965400 11.033500
     CHANNELS 3 Yrotation Xrotation Zrotation
     End Site
     {
      OFFSET 0.000000 -1.423100 5.872300
     }
    }
   }
  }
 }
 JOINT LeftHip
 {
  OFFSET 7.771700 -0.012900 -0.001300
  CHANNELS 3 Yrotation Xrotation Zrotation
  JOINT LeftKnee
  {
   OFFSET 0.000000 -40.869800 0.001200
   CHANNELS 3 Yrotation Xrotation Zrotation
   JOINT LeftAnkle
   {
    OFFSET 0.000000 -39.717900 0.002100
    CHANNELS 3 Yrotation Xrotation Zrotation
    JOINT LeftToe
    {
     OFFSET 0.000000 -4.965400 11.033500
     CHANNELS 3 Yrotation Xrotation Zrotation
     End Site
     {
      OFFSET 0.000000 -1.423100 5.872300
     }
    }
   }
  }
 }
}
MOTION
Frames: 15
Frame Time: 0.008333
0.000000 85.388000 0.000000 0.000000 -5.767877 0.000000 0.000000 11.653817 0.000000 0.000000 -5.885947 0.000000 0.000000 -0.000000 0.000000 0.000000 -0.000000 0.000000 0.000000 12.528835 0.000000 0.000000 0.711642 0.000000 0.000000 -0.000000 0.000000 0.000000 0.000000 -90.000000 0.000000 -2.309062 0.000000 0.000000 2.309062 0.000000 0.000000 -0.000000 0.000000 0.000000 -0.000000 90.000000 0.000000 -2.309062 0.000000 0.000000 2.309062 0.000000 0.000000 8.520406 0.000000 0.000000 1.905762 0.000000 -0.000000 -4.658285 0.000000 0.000000 -0.000000 0.000000 0.000000 8.520406 0.000000 0.000000 1.905762 0.000000 -0.000000 -4.658285 0.000000 0.000000 -0.000000 0.000000
-204.513421 48.953758 8.602917 174.216986 -32.281978 -5.299739 0.594347 17.918336 2.956106 0.063162 2.032573 0.293916 0.096198 3.358814 0.475377 0.782808 15.757625 2.378793 10.958438 20.301485 0.623104 19.752329 2.471082 -2.040925 -2.321522 0.416324 -1.257509 -1.239806 -12.964002 -12.468285 -52.061551 -81.381424 92.330796 7.521988 6.921121 -24.362381 -1.189585 -0.303876 1.974567 4.468524 -5.852237 14.049198 -154.806560 -80.319247 133.142057 2.232470 13.802658 26.269340 0.214139 -52.416485 2.760056 -150.995310 82.484952 -138.480545 -29.543300 -6.704488 1.498594 -0.203145 -7.144350 -2.150051 -19.924125 -53.253398 24.823706 -75.579400 67.989825 -79.935543 30.030744 8.442365 11.946199 0.464427 -0.280018 0.225765
-204.516496 48.955351 8.600032 174.208750 -32.282602 -5.313513 0.610894 17.921654 2.981148 0.061418 2.029919 0.290721 0.122664 3.372680 0.496369 0.792015 15.752988 2.384742 10.909277 20.324527 0.596061 19.662067 2.603713 -2.074400 -2.297234 0.412547 -1.247099 -1.267448 -12.941354 -12.394525 -51.453506 -81.322398 91.687444 7.545623 7.073068 -24.164505 -1.226961 -0.293407 1.918307 4.556281 -5.917694 13.967461 -155.368784 -80.611025 133.760140 2.256264 13.890636 26.120875 0.131030 -52.406880 2.789864 -151.145009 82.508255 -138.633691 -29.593037 -6.690407 1.515479 -0.212831 -7.176302 -2.186332 -19.905928 -53.259086 24.856582 -75.625303 67.970287 -79.970567 29.989651 8.444632 11.931684 0.505273 -0.273773 0.240841
-204.520510 48.956148 8.599148 174.190075 -32.273534 -5.312666 0.640175 17.926582 3.012040 0.061726 2.020916 0.283991 0.122658 3.378649 0.498936 0.814911 15.756378 2.399996 10.856107 20.387134 0.555893 19.574563 2.672484 -2.122302 -2.300610 0.398538 -1.251718 -1.254091 -12.911377 -12.315627 -50.966555 -81.249790 91.167232 7.565094 7.192822 -23.968279 -1.273504 -0.289507 1.881167 4.610954 -5.956899 13.926349 -156.138968 -80.874065 134.638638 2.266779 13.967689 25.968740 0.102597 -52.415634 2.805933 -151.197664 82.518201 -138.687653 -29.635933 -6.678925 1.524777 -0.177209 -7.192477 -2.206752 -19.898594 -53.268261 24.879473 -75.621468 67.962439 -79.970162 30.001116 8.447398 11.944275 0.498608 -0.272176 0.235657
-204.520046 48.957196 8.600445 174.160731 -32.262337 -5.324412 0.673996 17.922847 3.050457 0.069343 2.034583 0.295677 0.120519 3.370014 0.491333 0.820721 15.751051 2.400552 10.823416 20.435930 0.529071 19.482521 2.732952 -2.177765 -2.284944 0.392552 -1.247604 -1.230829 -12.881472 -12.247643 -50.590668 -81.165655 90.762114 7.576906 7.275802 -23.792916 -1.298294 -0.279079 1.858962 4.711670 -5.992452 13.800648 -156.380381 -81.032638 134.933513 2.268766 14.026174 25.827846 0.079749 -52.427513 2.841387 -151.266032 82.532332 -138.742525 -29.658292 -6.668299 1.512418 -0.215349 -7.209570 -2.205540 -19.908079 -53.272745 24.934210 -75.618642 67.955383 -79.970033 30.022069 8.440723 11.959190 0.478421 -0.265349 0.228111
-204.518934 48.958197 8.603355 174.131115 -32.249904 -5.327450 0.704203 17.915264 3.077113 0.070411 2.039056 0.298733 0.123380 3.373199 0.493099 0.826843 15.746422 2.401456 10.801646 20.440141 0.512914 19.377658 2.811968 -2.236451 -2.207059 0.406146 -1.203783 -1.254481 -12.877695 -12.231818 -50.293104 -81.069789 90.443486 7.583050 7.319676 -23.649708 -1.313951 -0.282369 1.845836 4.789254 -5.996103 13.675460 -156.404170 -81.109946 135.026242 2.256312 14.064804 25.704880 0.029509 -52.438995 2.877780 -151.455915 82.558170 -138.930337 -29.668384 -6.661347 1.490155 -0.148842 -7.226167 -2.222068 -19.893311 -53.275218 24.977875 -75.589575 67.930166 -79.940428 30.025253 8.431994 11.973471 0.474200 -0.249298 0.223327
-204.519096 48.960505 8.605177 174.104234 -32.253163 -5.308717 0.725858 17.918810 3.074668 0.069197 2.049940 0.304815 0.125546 3.376238 0.494297 0.858252 15.772243 2.426910 10.731438 20.445111 0.454505 19.294821 2.842108 -2.302960 -2.228612 0.365755 -1.220222 -1.209847 -12.862928 -12.185909 -50.062599 -80.968810 90.205276 7.588548 7.328867 -23.544727 -1.360905 -0.287385 1.809217 4.847700 -6.015075 13.592566 -156.311914 -81.121373 135.030612 2.225846 14.087305 25.606985 -0.006666 -52.437332 2.896337 -151.605424 82.572619 -139.103944 -29.669931 -6.647301 1.497735 -0.139417 -7.246810 -2.246147 -19.858829 -53.268651 24.972048 -75.565787 67.920647 -79.917751 30.039423 8.421402 11.985128 0.461567 -0.240875 0.213799
-204.521168 48.962223 8.608654 174.073483 -32.251562 -5.262932 0.739691 17.925174 3.050836 0.068263 2.057601 0.303324 0.127181 3.379096 0.495091 0.865977 15.777727 2.430381 10.655911 20.494072 0.382603 19.257915 2.830084 -2.364674 -2.197440 0.359775 -1.197494 -1.203964 -12.873459 -12.184523 -49.937343 -80.876448 90.095954 7.595699 7.316747 -23.483604 -1.385964 -0.274033 1.785731 4.896028 -6.023312 13.522913 -155.967529 -81.060410 134.792556 2.179935 14.100440 25.535716 -0.079282 -52.443615 2.907020 -151.900161 82.593521 -139.456870 -29.652589 -6.625832 1.499791 -0.149313 -7.281550 -2.275724 -19.796088 -53.274832 24.929629 -75.539012 67.910876 -79.892251 30.050991 8.413208 11.992461 0.452049 -0.233391 0.208190
-204.518319 48.966216 8.610785 173.994211 -32.274960 -5.206750 0.795216 17.979975 3.043163 0.076235 2.030685 0.296565 0.125902 3.393048 0.497385 0.871010 15.775419 2.431450 10.634469 20.493118 0.356949 19.188018 2.878022 -2.434446 -2.152487 0.385575 -1.165297 -1.231871 -12.918338 -12.212009 -49.920704 -80.814507 90.109984 7.617197 7.311001 -23.479522 -1.444301 -0.197951 1.761438 4.970862 -6.080662 13.463992 -155.422073 -80.939802 134.365951 2.120915 14.111283 25.481740 -0.058251 -52.423592 2.896949 -152.221039 82.631054 -139.758806 -29.739207 -6.641381 1.427051 -0.040732 -7.287325 -2.255670 -19.706630 -53.250633 24.901620 -75.500753 67.905022 -79.858093 30.121772 8.371994 12.036822 0.376965 -0.204441 0.173064
-204.514243 48.968385 8.616945 173.963477 -32.271712 -5.175414 0.810611 17.996799 3.026877 0.079906 2.019699 0.297776 0.126359 3.394719 0.496852 0.872795 15.770349 2.431189 10.617640 20.506068 0.338481 19.129371 2.930655 -2.503873 -2.147678 0.384917 -1.162247 -1.178743 -12.923009 -12.197032 -49.812076 -80.813831 89.958916 7.602929 7.294658 -23.460773 -1.474522 -0.156020 1.752741 5.007498 -6.084205 13.409465 -154.774680 -80.779584 133.844103 2.055243 14.124888 25.439654 -0.074195 -52.429885 2.888795 -152.497033 82.659383 -140.040590 -29.744373 -6.631794 1.417464 0.009906 -7.306584 -2.285551 -19.674659 -53.245918 24.885664 -75.454311 67.900823 -79.817381 30.144333 8.352013 12.053419 0.349387 -0.189378 0.157499
-204.506155 48.970265 8.625090 173.927950 -32.261046 -5.157911 0.832471 18.006329 3.023861 0.074642 2.044787 0.297944 0.138421 3.360135 0.499233 0.873754 15.788286 2.432616 10.564079 20.552881 0.269415 19.129337 2.904114 -2.542621 -2.131210 0.379304 -1.151496 -1.094956 -12.968225 -12.197665 -49.710066 -80.789477 89.823575 7.610498 7.275467 -23.486669 -1.495762 -0.151197 1.745657 5.028249 -6.070853 13.366583 -154.104648 -80.600820 133.297648 1.995637 14.140459 25.408659 -0.098006 -52.444147 2.891607 -152.886537 82.692202 -140.433559 -29.682237 -6.606190 1.424611 -0.033890 -7.345560 -2.332733 -19.665801 -53.249099 24.900374 -75.429094 67.896210 -79.795858 30.177418 8.336789 12.073193 0.314695 -0.181886 0.138633
-204.499709 48.972444 8.632341 173.900566 -32.254177 -5.127215 0.839916 18.018491 3.000360 0.080518 2.036059 0.299533 0.134008 3.375360 0.496848 0.875812 15.792295 2.429461 10.536299 20.579318 0.223982 19.148320 2.860348 -2.549374 -2.136252 0.389155 -1.143200 -1.016689 -13.028633 -12.200758 -49.723837 -80.795219 89.832868 7.696546 7.217041 -23.488757 -1.494410 -0.169957 1.748968 5.027049 -6.033420 13.335002 -153.480747 -80.425740 132.789103 1.946430 14.152884 25.386812 -0.086248 -52.452973 2.866373 -153.135289 82.720007 -140.673040 -29.692310 -6.603844 1.409843 -0.023610 -7.356984 -2.349188 -19.641734 -53.257532 24.887321 -75.408545 67.894351 -79.780458 30.205563 8.334590 12.091943 0.285619 -0.185365 0.122402
-204.490466 48.975404 8.638873 173.863381 -32.254853 -5.101494 0.864030 18.026057 2.990641 0.081650 2.037514 0.299660 0.130267 3.387983 0.494313 0.879507 15.796707 2.424453 10.529934 20.574297 0.209080 19.109863 2.920396 -2.609462 -2.141939 0.375956 -1.138179 -0.962962 -13.058592 -12.203365 -50.035639 -80.884611 90.195094 7.708926 7.224233 -23.532657 -1.515946 -0.150084 1.746961 5.047154 -6.044576 13.322761 -152.978723 -80.283611 132.381011 1.905260 14.161044 25.374819 -0.056777 -52.457369 2.857673 -153.204712 82.728990 -140.736703 -29.694587 -6.588368 1.442546 -0.016350 -7.373745 -2.396152 -19.611208 -53.259427 24.883732 -75.418348 67.892453 -79.784164 30.220375 8.331124 12.093820 0.267176 -0.192128 0.115111
-204.480930 48.978681 8.644320 173.844472 -32.260295 -5.081201 0.870836 18.039072 2.975711 0.051748 2.065781 0.284792 0.136430 3.388203 0.495169 0.899838 15.787364 2.427587 10.504367 20.607066 0.172239 19.105733 2.948146 -2.659234 -2.133035 0.355512 -1.133373 -0.922587 -13.076842 -12.209442 -50.315384 -80.971402 90.500421 7.725551 7.228278 -23.546161 -1.531583 -0.134996 1.744000 5.075562 -6.074357 13.324080 -152.621802 -80.194864 132.087920 1.874450 14.165722 25.367207 -0.049305 -52.451579 2.835112 -153.521128 82.766960 -141.030689 -29.739920 -6.575869 1.455171 -0.024280 -7.399679 -2.437483 -19.587368 -53.258766 24.871135 -75.420941 67.892639 -79.783585 30.238732 8.335417 12.099967 0.248747 -0.198569 0.105241
-204.468770 48.981654 8.649984 173.765706 -32.269945 -5.039851 0.896613 18.072912 2.943646 0.081638 2.046503 0.298588 0.117553 3.402926 0.484769 0.906449 15.791188 2.423812 10.490043 20.639429 0.142339 19.109305 2.979335 -2.700909 -2.111918 0.334957 -1.125466 -0.893506 -13.088434 -12.213117 -50.582905 -81.054117 90.789895 7.756892 7.221482 -23.538941 -1.570446 -0.091665 1.743034 5.124596 -6.099623 13.317251 -152.400135 -80.116565 131.934694 1.857495 14.166738 25.356663 0.008582 -52.442961 2.815026 -154.325397 82.858733 -141.791582 -29.824309 -6.562049 1.402670 0.027205 -7.424303 -2.441214 -19.547265 -53.251890 24.893800 -75.423770 67.899013 -79.793942 30.286521 8.306405 12.123313 0.191158 -0.182246 0.081080
